<?xml version="1.0" encoding="utf-8"?>
<!-- Generator: Adobe Illustrator 16.0.4, SVG Export Plug-In . SVG Version: 6.00 Build 0)  -->
<!DOCTYPE svg PUBLIC "-//W3C//DTD SVG 1.1//EN" "http://www.w3.org/Graphics/SVG/1.1/DTD/svg11.dtd">
<svg version="1.1" id="Layer_1" xmlns="http://www.w3.org/2000/svg" xmlns:xlink="http://www.w3.org/1999/xlink" x="0px" y="0px"
	 width="308px" height="337px" viewBox="75.5 12 308 337" enable-background="new 75.5 12 308 337" xml:space="preserve">
<g>
	<g>
		<path fill="#DDDFE0" d="M147.648,29.876c-8.925,35.519-39.068,158.789,7.011,170.37c46.076,11.582,77.797-111.293,86.725-146.812
			C244.982,39.1,151.752,13.556,147.648,29.876z"/>
	</g>
	<g>
		<path fill="#CECFD0" d="M161.908,332.468c-2.239,8.914-21.382,11.788-42.755,6.418c-21.376-5.372-36.882-16.956-34.643-25.87
			c2.242-8.912,21.382-11.789,42.758-6.412C148.638,311.971,164.15,323.553,161.908,332.468z"/>
	</g>
	<g>
		<path fill="#CCCCCC" d="M162.273,331.021c-2.042,8.106-21.021,10.334-42.393,4.961c-21.374-5.371-37.043-16.307-35.005-24.414
			c2.042-8.116,21.017-10.342,42.393-4.967C148.638,311.971,164.311,322.904,162.273,331.021z"/>
	</g>
	<g>
		<path fill="#E3E4E5" d="M134.802,323.012c0,0,6.702-58.115,11.334-76.552c4.633-18.437,12.964-40.546,12.964-40.546l-12.138-3.051
			c0,0-3.646,25.523-7.747,41.856c-4.107,16.327-26.21,72.812-26.21,72.812s2.549,5.04,9.995,6.911
			C130.451,326.32,134.802,323.012,134.802,323.012z"/>
	</g>
	<g>
		<polygon fill="#E3E4E5" points="167.19,199.775 143.652,193.861 147.135,203.492 158.704,206.398 		"/>
	</g>
	<g>
		<path fill="#DFE0E1" d="M239.684,54.412c-8.666,34.482-99.667,11.611-90.999-22.871C152.667,15.692,243.182,40.497,239.684,54.412
			z"/>
	</g>
	<g>
		<path fill="#E8EAEB" d="M239.684,54.412c-8.666,34.482-39.878,155.426-84.613,144.184
			c-44.731-11.242-15.055-132.573-6.386-167.055c0,0,9.237,8.353,45.495,17.465C230.438,58.119,239.684,54.412,239.684,54.412z"/>
	</g>
	<g>
		<path fill="#E8EAEB" d="M239.684,54.412c-8.666,34.482-39.878,155.426-84.613,144.184
			c-44.731-11.242-15.055-132.573-6.386-167.055c0,0,9.237,8.353,45.495,17.465C230.438,58.119,239.684,54.412,239.684,54.412z"/>
	</g>
	<g>
		<path fill="#F1E4C8" d="M230.385,81.649c-11.919,36.856-14.054,44.549-25.666,70.984c-10.549,24.003-30.354,47.654-48.891,42.997
			c-18.475-4.646-24.057-31.201-23.568-57.645c0.507-27.627,6.393-53.791,11.736-77.63c0,0,28.164,0.477,45.517,5.49
			C206.871,70.861,230.385,81.649,230.385,81.649z"/>
	</g>
	<g>
		<g>
			<path fill="#F1E4C8" d="M173.704,67.403c-0.533,1.636-1.138,3.185-1.532,4.74C172.67,70.601,173.165,69.066,173.704,67.403z"/>
		</g>
		<g>
			<path fill="#F1E4C8" d="M172.172,72.143c-0.009,0.017-0.015,0.042-0.018,0.057c0,0,0,0,0-0.003
				C172.157,72.181,172.166,72.162,172.172,72.143z"/>
		</g>
	</g>
	<g>
		<path fill="#D3B95F" d="M230.385,81.649c-11.919,36.856-14.054,44.549-25.666,70.984c-10.549,24.003-30.354,47.654-48.891,42.997
			c-18.475-4.646-24.057-31.201-23.568-57.645c0.507-27.627,6.393-53.791,11.736-77.63c0,0,11.288,11.817,41.988,19.533
			C214.398,87.03,230.385,81.649,230.385,81.649z"/>
	</g>
	<g>
		<g>
			<path fill="#F1E4C8" d="M172.151,72.209c0-0.003,0-0.003,0.003-0.009c0.003-0.016,0.009-0.04,0.018-0.057
				c0.003-0.017,0.009-0.035,0.016-0.05C172.175,72.13,172.16,72.172,172.151,72.209z"/>
		</g>
		<g>
			<path fill="#D3B95F" d="M173.704,67.403c-0.526,1.619-1.12,3.149-1.516,4.69C172.68,70.562,173.168,69.047,173.704,67.403z"/>
		</g>
	</g>
	<g>
		<path fill="#E8CC7C" d="M172.8,192.812c-5.579,3.031-11.332,4.234-16.972,2.817c-18.475-4.646-24.057-31.201-23.568-57.645
			c0.507-27.627,6.393-53.791,11.736-77.63c0,0,11.288,11.817,41.988,19.533c7.106,1.788,13.431,2.788,18.926,3.291L172.8,192.812z"
			/>
	</g>
	<g>
		<path fill="#EADD97" d="M155.828,195.63c-18.475-4.646-24.057-31.201-23.568-57.645c0.507-27.627,6.393-53.791,11.736-77.63
			c0,0,11.288,11.817,41.988,19.533L155.828,195.63z"/>
	</g>
	<g>
		<path fill="#ECDAAA" d="M155.828,195.63c-2.31-0.581-4.417-1.504-6.337-2.726l23.294-116.939
			c3.933,1.367,8.318,2.697,13.199,3.923L155.828,195.63z"/>
	</g>
</g>
<g opacity="0.45">
	<g>
		<path fill="#F1E4C8" d="M157.18,85.93c-0.619,2.44-2.889,3.973-5.075,3.421c-2.189-0.549-3.466-2.975-2.854-5.413
			c0.612-2.442,2.885-3.975,5.071-3.425C156.515,81.063,157.792,83.488,157.18,85.93z"/>
	</g>
	<g>
		<path fill="#F1E4C8" d="M174.557,106.985c-0.612,2.438-2.882,3.973-5.075,3.42c-2.18-0.547-3.457-2.973-2.845-5.411
			c0.612-2.438,2.883-3.971,5.069-3.422C173.892,102.121,175.169,104.546,174.557,106.985z"/>
	</g>
	<g>
		<path fill="#F1E4C8" d="M202.35,98.253c-0.612,2.44-2.885,3.971-5.071,3.418c-2.188-0.549-3.467-2.971-2.854-5.408
			c0.615-2.443,2.885-3.976,5.074-3.427C201.688,93.388,202.966,95.813,202.35,98.253z"/>
	</g>
	<g>
		<path fill="#F1E4C8" d="M149.234,122.649c-0.612,2.442-2.885,3.976-5.068,3.425c-2.187-0.549-3.464-2.976-2.852-5.417
			c0.612-2.437,2.882-3.972,5.071-3.421C148.573,117.787,149.85,120.21,149.234,122.649z"/>
	</g>
	<g>
		
			<ellipse transform="matrix(0.2439 -0.9698 0.9698 0.2439 -47.0386 254.2853)" fill="#F1E4C8" cx="139.562" cy="157.31" rx="4.555" ry="4.087"/>
	</g>
	<g>
		<path fill="#F1E4C8" d="M168.573,144.356c-0.616,2.44-2.889,3.974-5.075,3.421c-2.186-0.547-3.463-2.973-2.851-5.411
			c0.615-2.44,2.886-3.972,5.069-3.424C167.908,139.492,169.185,141.916,168.573,144.356z"/>
	</g>
	<g>
		<path fill="#F1E4C8" d="M193.044,131.393c-0.612,2.438-2.882,3.969-5.075,3.419c-2.183-0.549-3.457-2.972-2.845-5.41
			c0.612-2.439,2.882-3.974,5.068-3.425S193.656,128.952,193.044,131.393z"/>
	</g>
	<g>
		<path fill="#F1E4C8" d="M216.15,117.438c-0.611,2.438-2.884,3.973-5.073,3.421c-2.187-0.549-3.464-2.973-2.852-5.411
			c0.612-2.439,2.886-3.974,5.072-3.424C215.49,112.574,216.768,115.001,216.15,117.438z"/>
	</g>
	<g>
		<path fill="#F1E4C8" d="M161.395,181.273c-0.613,2.434-2.882,3.969-5.075,3.418c-2.18-0.549-3.46-2.976-2.848-5.41
			c0.612-2.441,2.888-3.974,5.072-3.425C160.736,176.405,162.01,178.83,161.395,181.273z"/>
	</g>
	<g>
		<path fill="#F1E4C8" d="M185.077,166.326c-0.612,2.438-2.885,3.969-5.074,3.417c-2.187-0.549-3.46-2.969-2.848-5.407
			c0.615-2.444,2.885-3.978,5.072-3.427C184.414,161.46,185.689,163.885,185.077,166.326z"/>
	</g>
</g>
<g>
	<path fill="#F1E4C8" d="M230.385,81.649c0,0-23.514-10.789-40.872-15.805c-17.353-5.013-45.517-5.49-45.517-5.49
		s11.288,11.817,41.988,19.533C214.398,87.03,230.385,81.649,230.385,81.649z"/>
</g>
<g>
	<g>
		<path fill="#D3B95F" d="M159.576,196.171c-0.201-0.005-0.411-0.028-0.615-0.048C159.165,196.143,159.375,196.166,159.576,196.171z
			"/>
	</g>
	<g>
		<path fill="#D3B95F" d="M163.195,196.036c-0.195,0.024-0.393,0.053-0.588,0.073C162.802,196.089,163,196.061,163.195,196.036z"/>
	</g>
	<g>
		<path fill="#D3B95F" d="M170.11,194.102c-0.216,0.096-0.442,0.188-0.665,0.274C169.668,194.289,169.894,194.197,170.11,194.102z"
			/>
	</g>
	<g>
		<path fill="#D3B95F" d="M230.385,81.649c-0.52,1.594-1.102,3.104-1.494,4.625C229.375,84.762,229.857,83.267,230.385,81.649z"/>
	</g>
	<g>
		<path fill="#D3B95F" d="M166.386,195.424c-0.09,0.029-0.18,0.04-0.266,0.066C166.207,195.464,166.296,195.453,166.386,195.424z"/>
	</g>
	<g>
		<path fill="#DDC272" d="M158.961,196.123c-1.046-0.087-2.088-0.232-3.133-0.493C156.873,195.891,157.916,196.036,158.961,196.123z
			"/>
	</g>
	<g>
		<path fill="#DDC272" d="M169.445,194.376c-1.014,0.412-2.035,0.776-3.059,1.047C167.41,195.152,168.431,194.788,169.445,194.376z"
			/>
	</g>
	<g>
		<path fill="#DDC272" d="M162.607,196.109c-1.011,0.099-2.016,0.119-3.031,0.062C160.591,196.229,161.596,196.208,162.607,196.109z
			"/>
	</g>
	<g>
		<path fill="#DDC272" d="M172.8,192.812l0.006-0.035c-0.893,0.492-1.791,0.938-2.696,1.326
			C171.013,193.711,171.91,193.297,172.8,192.812z"/>
	</g>
	<g>
		<path fill="#DDC272" d="M166.12,195.49c-0.971,0.244-1.948,0.425-2.925,0.546C164.172,195.915,165.149,195.734,166.12,195.49z"/>
	</g>
	<g>
		<path fill="#ECDAAA" d="M179.632,78.146c2.029,0.597,4.126,1.183,6.353,1.743C183.758,79.328,181.661,78.742,179.632,78.146z"/>
	</g>
	<g>
		<path fill="#ECDAAA" d="M173.79,76.288c1.271,0.432,2.598,0.855,3.961,1.279C176.391,77.143,175.061,76.72,173.79,76.288z"/>
	</g>
	<g>
		<path fill="#EADD97" d="M228.825,86.463c0.003-0.003,0.007-0.005,0.007-0.008c0.009-0.037,0.023-0.079,0.036-0.116
			c0.007-0.023,0.019-0.045,0.022-0.065C228.868,86.335,228.85,86.401,228.825,86.463z"/>
	</g>
	<g>
		<path fill="#F1D069" d="M205.124,83.196l-0.214-0.017l-1.75,5.965c12.801,1.383,24.623,1.291,25.665-2.681
			c0.024-0.062,0.043-0.128,0.065-0.189c0.393-1.52,0.975-3.031,1.493-4.625C230.385,81.649,221.473,84.649,205.124,83.196z"/>
	</g>
	<g>
		<path fill="#F3D183" d="M203.16,89.144l1.75-5.965c-5.495-0.503-11.819-1.503-18.926-3.291l-1.649,6.343
			C190.025,87.378,196.703,88.443,203.16,89.144z"/>
	</g>
	<g>
		<path fill="#EADD97" d="M177.751,77.567c0.627,0.195,1.237,0.385,1.88,0.578C178.989,77.952,178.379,77.762,177.751,77.567z"/>
	</g>
	<g>
		<path fill="#FFEEA5" d="M171.446,82.706l1.339-6.741c0.315,0.11,0.686,0.214,1.005,0.323
			c-21.521-7.323-29.794-15.933-29.794-15.933c-0.266,1.191-0.501,2.399-0.801,3.597C141.766,69.631,156.83,77.751,171.446,82.706z"
			/>
	</g>
	<g>
		<path fill="#FFEBBF" d="M171.446,82.706c4.193,1.424,8.362,2.602,12.08,3.366c0.26,0.056,0.544,0.108,0.81,0.16l1.649-6.343
			c-2.227-0.56-4.323-1.146-6.353-1.743c-0.643-0.193-1.253-0.383-1.88-0.578c-1.364-0.424-2.69-0.848-3.961-1.279
			c-0.319-0.109-0.689-0.213-1.005-0.323L171.446,82.706z"/>
	</g>
</g>
<g>
	<path fill="#DDDFE0" d="M232.055,33.718c2.502,37.434,12.008,167.093,60.566,163.845c48.566-3.246,40.729-133.015,38.226-170.451
		C329.836,12.004,230.902,16.515,232.055,33.718z"/>
</g>
<g>
	<path fill="#CECFD0" d="M341.398,324.148c0.628,9.396-17.121,18.232-39.649,19.74c-22.526,1.508-41.296-4.891-41.924-14.285
		c-0.628-9.396,17.12-18.232,39.651-19.74C321.999,308.357,340.771,314.755,341.398,324.148z"/>
</g>
<g>
	<path fill="#CCCCCC" d="M341.3,322.621c0.568,8.551-17.229,16.705-39.756,18.209c-22.526,1.51-41.249-4.206-41.819-12.754
		c-0.572-8.553,17.223-16.705,39.753-18.212C321.999,308.357,340.724,314.068,341.3,322.621z"/>
</g>
<g>
	<path fill="#E3E4E5" d="M311.997,323.48c0,0-11.804-58.76-13.1-78.186c-1.304-19.432-0.154-43.609-0.154-43.609l-12.792,0.854
		c0,0,4.492,26.031,5.646,43.245c1.149,17.206-2.576,79.235-2.576,79.235s4.074,4.108,11.922,3.582
		C308.796,328.084,311.997,323.48,311.997,323.48z"/>
</g>
<g>
	<polygon fill="#E3E4E5" points="304.692,193.152 279.885,194.809 286.316,203.098 298.511,202.285 	"/>
</g>
<g>
	<path fill="#DFE0E1" d="M329.498,28.599c2.428,36.344-93.479,42.757-95.91,6.412C232.473,18.309,328.515,13.935,329.498,28.599z"/>
</g>
<g>
	<path fill="#E8EAEB" d="M329.498,28.599c2.428,36.344,10.156,164.075-36.99,167.223c-47.146,3.154-56.488-124.466-58.92-160.812
		c0,0,11.637,5.23,49.854,2.674C321.656,35.131,329.498,28.599,329.498,28.599z"/>
</g>
<g>
	<path fill="#E8EAEB" d="M329.498,28.599c2.428,36.344,10.156,164.075-36.99,167.223c-47.146,3.154-56.488-124.466-58.92-160.812
		c0,0,11.637,5.23,49.854,2.674C321.656,35.131,329.498,28.599,329.498,28.599z"/>
</g>
<g>
	<path fill="#F1E4C8" d="M329.025,58.083c0.009,39.683,0.353,47.852-2.631,77.282c-2.704,26.721-14.55,56.023-34.084,57.33
		c-19.474,1.299-33.293-22.821-41.158-48.751c-8.221-27.088-10.732-54.444-13.047-79.368c0,0,27.604-8.417,46.099-9.005
		C302.704,54.982,329.025,58.083,329.025,58.083z"/>
</g>
<g>
	<g>
		<path fill="#F1E4C8" d="M269.285,62.075c0,1.762-0.104,3.463,0.004,5.103C269.289,65.517,269.285,63.864,269.285,62.075z"/>
	</g>
	<g>
		<path fill="#F1E4C8" d="M269.289,67.178c-0.007,0.021,0,0.045,0,0.062c0,0,0,0,0-0.003
			C269.285,67.219,269.289,67.197,269.289,67.178z"/>
	</g>
</g>
<g>
	<path fill="#D3B95F" d="M329.025,58.083c0.009,39.683,0.353,47.852-2.631,77.282c-2.704,26.721-14.55,56.023-34.084,57.33
		c-19.474,1.299-33.293-22.821-41.158-48.751c-8.221-27.088-10.732-54.444-13.047-79.368c0,0,14.729,7.959,47.084,5.796
		C315.143,68.37,329.025,58.083,329.025,58.083z"/>
</g>
<g>
	<g>
		<path fill="#F1E4C8" d="M269.291,67.249c-0.002-0.003-0.002-0.003-0.002-0.009c0-0.017-0.007-0.042,0-0.062
			c0-0.017-0.004-0.036,0-0.053C269.289,67.165,269.285,67.21,269.291,67.249z"/>
	</g>
	<g>
		<path fill="#D3B95F" d="M269.285,62.075c0,1.744-0.096,3.425,0.004,5.05C269.285,65.478,269.285,63.845,269.285,62.075z"/>
	</g>
</g>
<g>
	<path fill="#E8CC7C" d="M307.961,184.591c-4.478,4.72-9.708,7.706-15.65,8.104c-19.473,1.298-33.293-22.822-41.156-48.752
		c-8.221-27.088-10.733-54.444-13.047-79.368c0,0,14.729,7.959,47.084,5.796c7.492-0.499,13.972-1.519,19.485-2.763L307.961,184.591
		z"/>
</g>
<g>
	<path fill="#EADD97" d="M292.311,192.695c-19.473,1.298-33.293-22.822-41.156-48.752c-8.221-27.088-10.733-54.444-13.047-79.368
		c0,0,14.729,7.959,47.084,5.796L292.311,192.695z"/>
</g>
<g>
	<path fill="#ECDAAA" d="M292.311,192.695c-2.438,0.16-4.777-0.074-7.035-0.66L271.091,70.71c4.265,0.092,8.96,0.003,14.101-0.34
		L292.311,192.695z"/>
</g>
<g opacity="0.45">
	<g>
		<path fill="#F1E4C8" d="M259.023,85.347c0.168,2.572-1.562,4.781-3.869,4.936c-2.305,0.153-4.313-1.808-4.486-4.377
			c-0.173-2.573,1.559-4.784,3.861-4.939C256.841,80.812,258.852,82.772,259.023,85.347z"/>
	</g>
	<g>
		<path fill="#F1E4C8" d="M282.605,100.386c0.17,2.57-1.56,4.78-3.869,4.934c-2.301,0.155-4.309-1.806-4.48-4.377
			c-0.173-2.568,1.557-4.78,3.859-4.934C280.422,95.854,282.434,97.816,282.605,100.386z"/>
	</g>
	<g>
		<path fill="#F1E4C8" d="M306.94,83.109c0.173,2.57-1.562,4.779-3.868,4.932c-2.305,0.155-4.315-1.804-4.488-4.373
			c-0.17-2.575,1.559-4.786,3.866-4.94C304.757,78.576,306.768,80.536,306.94,83.109z"/>
	</g>
	<g>
		<path fill="#F1E4C8" d="M262.863,123.639c0.175,2.574-1.557,4.786-3.86,4.94c-2.305,0.153-4.313-1.808-4.487-4.382
			c-0.173-2.568,1.56-4.779,3.865-4.934C260.682,119.11,262.691,121.071,262.863,123.639z"/>
	</g>
	<g>
		<path fill="#F1E4C8" d="M268.537,160.201c0.174,2.571-1.559,4.782-3.865,4.936c-2.301,0.156-4.314-1.802-4.484-4.379
			c-0.174-2.573,1.562-4.779,3.863-4.936C266.355,155.671,268.364,157.627,268.537,160.201z"/>
	</g>
	<g>
		<path fill="#F1E4C8" d="M288.555,138.698c0.176,2.573-1.559,4.783-3.863,4.937c-2.303,0.156-4.315-1.805-4.485-4.377
			c-0.17-2.573,1.562-4.78,3.858-4.935C286.375,134.169,288.382,136.126,288.555,138.698z"/>
	</g>
	<g>
		<path fill="#F1E4C8" d="M308.319,118.346c0.171,2.568-1.559,4.777-3.864,4.933c-2.302,0.153-4.309-1.807-4.481-4.375
			c-0.174-2.573,1.556-4.785,3.858-4.938C306.138,113.81,308.149,115.773,308.319,118.346z"/>
	</g>
	<g>
		<path fill="#F1E4C8" d="M326.443,97.452c0.173,2.573-1.562,4.785-3.869,4.936c-2.305,0.157-4.314-1.802-4.485-4.374
			c-0.173-2.572,1.56-4.782,3.862-4.938C324.26,92.923,326.272,94.884,326.443,97.452z"/>
	</g>
	<g>
		<path fill="#F1E4C8" d="M293.21,176.946c0.17,2.565-1.562,4.776-3.873,4.932c-2.3,0.153-4.312-1.808-4.479-4.375
			c-0.174-2.573,1.559-4.787,3.858-4.938C291.025,172.409,293.036,174.37,293.21,176.946z"/>
	</g>
	<g>
		<path fill="#F1E4C8" d="M311.576,154.907c0.17,2.569-1.562,4.778-3.869,4.932c-2.304,0.154-4.311-1.805-4.483-4.374
			c-0.17-2.574,1.56-4.786,3.862-4.939C309.394,150.372,311.403,152.333,311.576,154.907z"/>
	</g>
</g>
<g>
	<path fill="#F1E4C8" d="M329.025,58.083c0,0-26.321-3.101-44.821-2.513c-18.494,0.588-46.099,9.005-46.099,9.005
		s14.729,7.959,47.084,5.796C315.143,68.37,329.025,58.083,329.025,58.083z"/>
</g>
<g>
	<g>
		<path fill="#D3B95F" d="M296.136,192.041c-0.2,0.059-0.411,0.1-0.616,0.145C295.725,192.141,295.936,192.1,296.136,192.041z"/>
	</g>
	<g>
		<path fill="#D3B95F" d="M299.617,190.766c-0.183,0.084-0.365,0.178-0.55,0.26C299.252,190.943,299.436,190.852,299.617,190.766z"
			/>
	</g>
	<g>
		<path fill="#D3B95F" d="M305.747,186.7c-0.18,0.161-0.371,0.321-0.562,0.478C305.376,187.021,305.567,186.859,305.747,186.7z"/>
	</g>
	<g>
		<path fill="#D3B95F" d="M329.025,58.083c-0.004,1.718-0.098,3.373,0.003,4.978C329.025,61.435,329.021,59.825,329.025,58.083z"/>
	</g>
	<g>
		<path fill="#D3B95F" d="M302.533,189.164c-0.076,0.057-0.156,0.095-0.237,0.146C302.377,189.259,302.457,189.221,302.533,189.164z
			"/>
	</g>
	<g>
		<path fill="#DDC272" d="M295.52,192.186c-1.047,0.246-2.108,0.437-3.209,0.51C293.41,192.622,294.473,192.432,295.52,192.186z"/>
	</g>
	<g>
		<path fill="#DDC272" d="M305.185,187.177c-0.859,0.72-1.736,1.398-2.65,1.987C303.447,188.576,304.324,187.896,305.185,187.177z"
			/>
	</g>
	<g>
		<path fill="#DDC272" d="M299.067,191.025c-0.955,0.412-1.932,0.75-2.933,1.016C297.137,191.773,298.112,191.438,299.067,191.025z"
			/>
	</g>
	<g>
		<path fill="#DDC272" d="M307.961,184.591l-0.003-0.032c-0.714,0.758-1.447,1.479-2.211,2.142
			C306.504,186.035,307.25,185.346,307.961,184.591z"/>
	</g>
	<g>
		<path fill="#DDC272" d="M302.296,189.311c-0.869,0.549-1.763,1.028-2.679,1.457C300.533,190.339,301.427,189.857,302.296,189.311z
			"/>
	</g>
	<g>
		<path fill="#ECDAAA" d="M278.455,70.676c2.162-0.058,4.389-0.148,6.734-0.305C282.844,70.527,280.617,70.618,278.455,70.676z"/>
	</g>
	<g>
		<path fill="#ECDAAA" d="M272.175,70.708c1.376,0.02,2.8,0.014,4.261-0.003C274.977,70.722,273.551,70.728,272.175,70.708z"/>
	</g>
	<g>
		<path fill="#EADD97" d="M329.025,63.265c0-0.004,0.003-0.007,0.003-0.009c-0.003-0.04,0-0.083-0.003-0.125
			c0-0.023,0.005-0.05,0.003-0.071C329.028,63.128,329.028,63.197,329.025,63.265z"/>
	</g>
	<g>
		<path fill="#F1D069" d="M304.891,67.558l-0.214,0.05l0.177,6.367c12.914-2.692,24.409-6.51,24.173-10.71
			c0.003-0.068,0.003-0.137,0.003-0.205c-0.101-1.605-0.007-3.26-0.003-4.978C329.025,58.083,321.284,63.817,304.891,67.558z"/>
	</g>
	<g>
		<path fill="#F3D183" d="M304.854,73.975l-0.177-6.367c-5.515,1.244-11.993,2.264-19.485,2.763l0.398,6.703
			C291.496,76.398,298.34,75.328,304.854,73.975z"/>
	</g>
	<g>
		<path fill="#EADD97" d="M276.436,70.705c0.679-0.008,1.33-0.014,2.021-0.029C277.766,70.691,277.113,70.697,276.436,70.705z"/>
	</g>
	<g>
		<path fill="#FFEEA5" d="M271.911,77.703l-0.82-6.993c0.341,0.007,0.734-0.009,1.084-0.002
			c-23.284-0.349-34.067-6.133-34.067-6.133c0.117,1.245,0.27,2.496,0.354,3.759C238.861,74.32,256.104,77.482,271.911,77.703z"/>
	</g>
	<g>
		<path fill="#FFEBBF" d="M271.911,77.703c4.537,0.063,8.972-0.102,12.837-0.53c0.27-0.028,0.562-0.066,0.842-0.099l-0.398-6.703
			c-2.348,0.157-4.573,0.248-6.735,0.305c-0.688,0.015-1.342,0.021-2.021,0.029c-1.461,0.017-2.885,0.023-4.26,0.003
			c-0.351-0.007-0.744,0.009-1.085,0.002L271.911,77.703z"/>
	</g>
</g>
</svg>
