<?xml version="1.0" encoding="utf-8"?>
<!-- Generator: Adobe Illustrator 16.0.4, SVG Export Plug-In . SVG Version: 6.00 Build 0)  -->
<!DOCTYPE svg PUBLIC "-//W3C//DTD SVG 1.1//EN" "http://www.w3.org/Graphics/SVG/1.1/DTD/svg11.dtd">
<svg version="1.1" id="Layer_1" xmlns="http://www.w3.org/2000/svg" xmlns:xlink="http://www.w3.org/1999/xlink" x="0px" y="0px"
	 width="667.071px" height="556px" viewBox="0 0 667.071 556" enable-background="new 0 0 667.071 556" xml:space="preserve">
<g>
	<path fill="#FFFFFF" d="M334.713,547.695c-72.165,0-140.011-28.103-191.04-79.131C92.645,417.536,64.542,349.69,64.542,277.526
		c0-72.165,28.103-140.011,79.131-191.039c51.029-51.028,118.875-79.131,191.04-79.131c72.164,0,140.01,28.103,191.038,79.131
		s79.131,118.874,79.131,191.039c0,72.165-28.103,140.01-79.131,191.039S406.877,547.695,334.713,547.695z M334.713,27.356
		c-66.823,0-129.646,26.022-176.897,73.273c-47.25,47.251-73.273,110.074-73.273,176.897s26.022,129.646,73.273,176.896
		c47.251,47.251,110.075,73.273,176.897,73.273c66.822,0,129.646-26.022,176.896-73.273
		c47.251-47.251,73.273-110.074,73.273-176.896c0-66.823-26.022-129.646-73.273-176.897
		C464.358,53.378,401.535,27.356,334.713,27.356z"/>
</g>
<path fill="#FFFFFF" d="M426.58,290.562L667.071,50.071l-14.143-14.143l-240.87,240.871c-25.049-18.052-59.695-19.599-86.771-1.31
	c-34.696,23.436-43.824,70.559-20.39,105.253c0.433,0.641,0.89,1.255,1.339,1.878l-42.308,42.308l14.143,14.143l41.881-41.881
	c25.241,20.491,61.861,23.082,90.199,3.942c34.695-23.436,43.823-70.559,20.388-105.253
	C429.289,294.028,427.959,292.267,426.58,290.562z M395.565,343.826l-23.009-0.067l-0.067,23.007l-10-0.029l0.067-23.006
	l-23.005-0.067l0.029-10l23.005,0.067l0.067-23.007l9.999,0.029l-0.067,23.006l23.009,0.067L395.565,343.826z"/>
<g>
	<path fill="#FFFFFF" d="M206.464,284.145c-0.074-1.814-1.485-44.753,26.798-72.843c16.764-16.649,40.027-24.387,69.119-23.003
		c24.5,1.166,42.48-4.444,53.447-16.677c16.96-18.918,12.621-47.859,12.575-48.149l19.756-3.119
		c0.247,1.568,5.796,38.702-17.439,64.619c-15.179,16.93-38.485,24.773-69.29,23.304c-23.204-1.109-41.368,4.656-53.98,17.124
		c-22.039,21.785-21.014,57.594-21,57.954L206.464,284.145z"/>
</g>
</svg>
